<svg width="42" height="36" viewBox="0 0 42 36" fill="none" xmlns="http://www.w3.org/2000/svg">
<path d="M32.9854 9.97901C32.4667 9.49638 31.9016 9.06793 31.2987 8.7001L29.8526 7.8174C28.512 6.99979 27.038 6.43344 25.5006 6.14528L24.9838 6.04798C22.2044 5.52621 19.524 4.55962 17.0423 3.18422C16.9304 2.67974 16.6833 2.21662 16.3284 1.84621C15.9735 1.47579 15.5247 1.21254 15.0316 1.08563C14.5386 0.958723 14.0207 0.973116 13.5352 1.12721C13.0497 1.28131 12.6157 1.5691 12.2812 1.95867C11.9468 2.34824 11.7249 2.82439 11.6402 3.33433C11.5556 3.84428 11.6114 4.36811 11.8016 4.84775C11.9917 5.3274 12.3088 5.74414 12.7176 6.05177C13.1264 6.3594 13.611 6.54592 14.1177 6.59064C15.7511 8.21553 17.1312 10.0844 18.2102 12.1326" stroke="#999999" stroke-linecap="round" stroke-linejoin="round"/>
<path d="M8.64897 19.5282C8.39053 19.8091 5.38696 23.1694 5.38696 26.5296C5.38696 30.0404 6.92377 31.545 8.34615 32.5481C9.76853 33.5511 12.0155 34.5542 13.8798 34.5542C15.7441 34.5542 25.6081 35.5573 30.0468 34.5542C34.4856 33.5511 34.9788 32.5481 36.9516 30.5419C38.0179 29.4576 38.808 27.9319 39.3091 26.7604C39.7893 25.6237 40.177 24.4488 40.4681 23.2476C40.8232 21.8072 41.1813 19.7389 40.8972 18.0036C40.404 14.9944 38.9244 12.9882 33.9924 10.4805C29.451 8.17148 25.4631 9.26483 24.8604 9.4524C24.8071 9.46932 24.7541 9.48738 24.7016 9.50657C23.9124 9.79043 17.5354 12.1105 14.8277 13.9913C12.0639 15.9112 8.94686 19.2092 8.68448 19.4891C8.67255 19.5017 8.66071 19.5144 8.64897 19.5272V19.5282Z" stroke="#999999" stroke-linecap="round" stroke-linejoin="round"/>
<path d="M3.51585 14.5029C3.00919 14.4581 2.5246 14.2716 2.11579 13.964C1.70699 13.6563 1.38994 13.2396 1.19977 12.76C1.00961 12.2803 0.953768 11.7565 1.03843 11.2465C1.1231 10.7366 1.34496 10.2605 1.67944 9.87088C2.01392 9.4813 2.44794 9.19352 2.93341 9.03942C3.41887 8.88532 3.93681 8.87093 4.42983 8.99784C4.92285 9.12475 5.37168 9.388 5.72658 9.75841C6.08147 10.1288 6.32858 10.5919 6.44051 11.0964C8.92223 12.4715 11.6027 13.4378 14.382 13.9592L14.8988 14.0565C16.4366 14.3454 17.9103 14.9121 19.2508 15.7296L20.6969 16.6123C21.663 17.2018 22.5296 17.9456 23.2635 18.815L23.6639 19.2895C24.2607 19.9968 24.7037 20.8243 24.9641 21.7178C25.2246 22.6113 25.2964 23.5506 25.1751 24.4744L25.1475 24.687C24.9803 25.9597 24.414 27.1438 23.5328 28.0633L23.077 28.5378C22.3359 29.3112 21.4218 29.8908 20.4127 30.227C19.4036 30.5632 18.3294 30.6462 17.282 30.4687C15.6378 30.19 14.1157 29.4099 12.9172 28.2318L12.1882 27.5147C11.6021 26.9387 11.0939 26.286 10.6771 25.5737L8.53462 21.9105L7.90925 20.6366C6.79138 18.3572 5.30642 16.284 3.51585 14.5029V14.5029Z" stroke="#999999" stroke-linecap="round" stroke-linejoin="round"/>
</svg>
