<svg width="25" height="30" viewBox="0 0 25 30" fill="none" xmlns="http://www.w3.org/2000/svg">
<path d="M5.74997 13.5692C6.12569 13.5692 6.48603 13.4199 6.75171 13.1542C7.01738 12.8886 7.16664 12.5282 7.16664 12.1525C7.16664 11.7768 7.01738 11.4164 6.75171 11.1508C6.48603 10.8851 6.12569 10.7358 5.74997 10.7358C5.37425 10.7358 5.01391 10.8851 4.74824 11.1508C4.48256 11.4164 4.3333 11.7768 4.3333 12.1525C4.3333 12.5282 4.48256 12.8886 4.74824 13.1542C5.01391 13.4199 5.37425 13.5692 5.74997 13.5692ZM12.8333 16.3997C12.8333 16.7754 12.684 17.1357 12.4184 17.4014C12.1527 17.6671 11.7924 17.8163 11.4166 17.8163C11.0409 17.8163 10.6806 17.6671 10.4149 17.4014C10.1492 17.1357 9.99997 16.7754 9.99997 16.3997C9.99997 16.0239 10.1492 15.6636 10.4149 15.3979C10.6806 15.1323 11.0409 14.983 11.4166 14.983C11.7924 14.983 12.1527 15.1323 12.4184 15.3979C12.684 15.6636 12.8333 16.0239 12.8333 16.3997ZM5.74997 22.0635C6.12569 22.0635 6.48603 21.9142 6.75171 21.6486C7.01738 21.3829 7.16664 21.0226 7.16664 20.6468C7.16664 20.2711 7.01738 19.9108 6.75171 19.6451C6.48603 19.3794 6.12569 19.2302 5.74997 19.2302C5.37425 19.2302 5.01391 19.3794 4.74824 19.6451C4.48256 19.9108 4.3333 20.2711 4.3333 20.6468C4.3333 21.0226 4.48256 21.3829 4.74824 21.6486C5.01391 21.9142 5.37425 22.0635 5.74997 22.0635ZM0.0833042 4.60167C0.0833042 2.48092 1.8258 0.627917 4.0783 0.850334C11.4129 1.57731 18.2081 5.02899 23.1211 10.5233C24.637 12.2134 24.1652 14.7223 22.4426 15.9704C20.2014 17.5968 16.8609 20.0178 14.9583 21.4005C14.9555 22.0196 14.9555 22.4219 14.9569 22.9475V23.8372C14.9571 24.1996 14.8778 24.5576 14.7247 24.886C14.5716 25.2145 14.3483 25.5054 14.0707 25.7382C13.793 25.9711 13.4676 26.1402 13.1175 26.2337C12.7674 26.3272 12.401 26.3429 12.0442 26.2795C11.7552 27.4497 10.7239 28.4427 9.29022 28.4427C8.29855 28.4427 7.50239 27.9682 7.01081 27.2882L5.13372 28.6439C3.02572 30.1654 0.0762206 28.6595 0.0776372 26.0571L0.0833042 4.60308V4.60167ZM3.87005 2.96542C3.0073 2.88042 2.20689 3.593 2.20689 4.60167V5.33833C9.65005 5.65142 16.2475 9.23275 20.6023 14.6798L21.1959 14.2492C22.0147 13.6542 22.1196 12.5874 21.5387 11.94C16.98 6.84277 10.6752 3.64083 3.87005 2.96683V2.96542ZM2.20264 26.0571C2.20264 26.9241 3.1858 27.427 3.88847 26.9184L6.90314 24.7452C7.06197 24.631 7.24928 24.5628 7.44441 24.5482C7.63953 24.5336 7.8349 24.5732 8.00896 24.6626C8.18303 24.7519 8.32903 24.8876 8.43087 25.0547C8.53272 25.2218 8.58645 25.4137 8.58614 25.6094C8.58614 25.9919 8.88222 26.3177 9.29022 26.3177C9.38364 26.3187 9.4763 26.301 9.56283 26.2658C9.64935 26.2306 9.728 26.1785 9.79419 26.1126C9.86037 26.0466 9.91278 25.9682 9.94836 25.8818C9.98393 25.7954 10.002 25.7028 10.0014 25.6094V23.8357C10.0014 23.554 10.1133 23.2837 10.3126 23.0844C10.5118 22.8852 10.7821 22.7732 11.0639 22.7732C11.3457 22.7732 11.6159 22.8852 11.8152 23.0844C12.0144 23.2837 12.1264 23.554 12.1264 23.8357C12.1264 24.0341 12.2836 24.1899 12.4777 24.1899C12.5717 24.1899 12.6617 24.1526 12.7282 24.0862C12.7946 24.0198 12.8319 23.9297 12.8319 23.8357V22.9546C12.8305 22.2887 12.8291 21.8099 12.839 20.8452C12.8403 20.6793 12.8804 20.516 12.9562 20.3684C13.032 20.2207 13.1413 20.0929 13.2753 19.9952C14.5531 19.0658 16.8113 17.4282 18.8796 15.9293C16.8598 13.4165 14.3283 11.3623 11.4534 9.90313C8.57856 8.44396 5.4261 7.61324 2.20547 7.46617L2.20264 26.0571Z" fill="#999999"/>
</svg>
