<svg width="10" height="10" viewBox="0 0 10 10" fill="none" xmlns="http://www.w3.org/2000/svg">
<path d="M9.14464 3.82459C9.11845 3.74745 9.07024 3.67967 9.00597 3.62961C8.9417 3.57956 8.86417 3.54942 8.78297 3.54292L6.40755 3.35417L5.37964 1.07876C5.3469 1.00547 5.29365 0.943223 5.22632 0.89953C5.15899 0.855837 5.08045 0.832564 5.00019 0.83252C4.91992 0.832476 4.84136 0.855662 4.77398 0.899282C4.7066 0.942901 4.65329 1.00509 4.62047 1.07834L3.59255 3.35417L1.21713 3.54292C1.13732 3.54925 1.06103 3.57843 0.997366 3.62698C0.933707 3.67553 0.885382 3.74139 0.858174 3.81668C0.830966 3.89198 0.826026 3.97352 0.843945 4.05155C0.861865 4.12958 0.901885 4.20079 0.959218 4.25667L2.71463 5.96792L2.0938 8.65626C2.07495 8.73763 2.08099 8.82279 2.11114 8.90069C2.14129 8.97859 2.19416 9.04563 2.26289 9.09311C2.33161 9.14058 2.41302 9.16631 2.49654 9.16695C2.58007 9.16758 2.66186 9.1431 2.7313 9.09667L5.00005 7.58417L7.2688 9.09667C7.33977 9.1438 7.42348 9.16805 7.50865 9.16619C7.59382 9.16432 7.67638 9.13641 7.74522 9.08623C7.81405 9.03604 7.86587 8.96597 7.8937 8.88545C7.92153 8.80493 7.92404 8.71782 7.90089 8.63584L7.1388 5.96917L9.0288 4.26834C9.15255 4.15667 9.19797 3.98251 9.14464 3.82459Z" fill="#F6FB05"/>
</svg>
