<svg width="10" height="10" viewBox="0 0 10 10" fill="none" xmlns="http://www.w3.org/2000/svg">
<path d="M2.0938 8.65626C2.07953 8.71737 2.07927 8.78092 2.09305 8.84215C2.10683 8.90338 2.13429 8.9607 2.17338 9.0098C2.21246 9.0589 2.26215 9.09853 2.31873 9.12569C2.3753 9.15286 2.43729 9.16687 2.50005 9.16667C2.58236 9.16669 2.66282 9.14233 2.7313 9.09667L5.00005 7.58417L7.2688 9.09667C7.33977 9.1438 7.42348 9.16805 7.50865 9.16619C7.59382 9.16432 7.67638 9.13641 7.74522 9.08622C7.81405 9.03604 7.86587 8.96597 7.8937 8.88545C7.92153 8.80493 7.92404 8.71782 7.90089 8.63584L7.1388 5.96917L9.0288 4.26834C9.08933 4.21383 9.13256 4.14278 9.15314 4.06397C9.17372 3.98516 9.17075 3.90204 9.14459 3.8249C9.11843 3.74776 9.07024 3.67997 9.00597 3.62993C8.9417 3.57989 8.86417 3.54979 8.78297 3.54334L6.40755 3.35417L5.37964 1.07876C5.3469 1.00547 5.29365 0.943223 5.22632 0.89953C5.15899 0.855837 5.08045 0.832564 5.00019 0.83252C4.91992 0.832476 4.84136 0.855662 4.77398 0.899282C4.7066 0.942901 4.65329 1.00509 4.62047 1.07834L3.59255 3.35417L1.21713 3.54292C1.13732 3.54925 1.06103 3.57843 0.997366 3.62698C0.933707 3.67553 0.885382 3.74139 0.858174 3.81668C0.830966 3.89198 0.826026 3.97352 0.843945 4.05155C0.861865 4.12958 0.901885 4.20079 0.959218 4.25667L2.71505 5.96792L2.0938 8.65626ZM5.00005 2.26209L5.85088 4.14584L6.09589 4.16542H6.0963L7.7513 4.29667L6.38838 5.52334L6.38797 5.52417L6.19505 5.69751L6.2663 5.94626V5.94751L6.78838 7.77459L5.00005 6.58251V2.26209Z" fill="#F6FB05"/>
</svg>
